<svg xmlns="http://www.w3.org/2000/svg" viewBox="0 0 36.93 47.79"><title>como vc esta hj</title><g id="Layer_2" data-name="Layer 2"><g id="Layer_1-2" data-name="Layer 1"><path d="M26.74,23.74A5.51,5.51,0,0,0,22.66,22a5.16,5.16,0,0,0-3.22,1.11,6.19,6.19,0,0,0-1,.94,6.61,6.61,0,0,0-1-.94A5.16,5.16,0,0,0,14.27,22a5.51,5.51,0,0,0-4.08,1.77,6.32,6.32,0,0,0-1.61,4.32,7.46,7.46,0,0,0,2,4.87,40.53,40.53,0,0,0,4.78,4.48l.15.13,2,1.72a1.5,1.5,0,0,0,2,0c.76-.67,1.51-1.3,2.16-1.86a40.11,40.11,0,0,0,4.76-4.47,7.43,7.43,0,0,0,2-4.87A6.32,6.32,0,0,0,26.74,23.74Zm-1.8,8A39,39,0,0,1,20.4,36l-1.94,1.66c-.68-.6-1.34-1.16-1.93-1.66A39.88,39.88,0,0,1,12,31.74a5.59,5.59,0,0,1-1.54-3.68,4.45,4.45,0,0,1,1.11-3,3.64,3.64,0,0,1,2.71-1.18,3.33,3.33,0,0,1,2.08.72,5.08,5.08,0,0,1,1.19,1.38,1.11,1.11,0,0,0,1.85,0,5.08,5.08,0,0,1,1.19-1.38,3.61,3.61,0,0,1,4.79.46,4.45,4.45,0,0,1,1.11,3A5.59,5.59,0,0,1,24.94,31.74Z"/><path d="M36.93,11.23a4,4,0,0,0-4-4H28.08A5.77,5.77,0,0,0,25.5,5.65,2.11,2.11,0,0,1,24,4.19a5.8,5.8,0,0,0-11.15,0,2.11,2.11,0,0,1-1.46,1.46A5.77,5.77,0,0,0,8.85,7.24H4a4,4,0,0,0-4,4V43.8a4,4,0,0,0,4,4H32.94a4,4,0,0,0,4-4Zm-27.14,0a3.27,3.27,0,0,1,2.34-3.1,4.68,4.68,0,0,0,3.21-3.2,3.25,3.25,0,0,1,6.25,0,4.68,4.68,0,0,0,3.2,3.2,3.26,3.26,0,0,1,2.35,3.13v1.44H9.79ZM34.38,43.8a1.44,1.44,0,0,1-1.44,1.44H4A1.44,1.44,0,0,1,2.55,43.8V11.23A1.43,1.43,0,0,1,4,9.79H7.42a5.41,5.41,0,0,0-.18,1.39v2.09a1.94,1.94,0,0,0,1.95,1.94H27.74a1.94,1.94,0,0,0,2-1.94v-2a5.8,5.8,0,0,0-.18-1.44h3.43a1.43,1.43,0,0,1,1.44,1.44Z"/></g></g></svg>