<svg xmlns="http://www.w3.org/2000/svg" viewBox="0 0 42 47.79"><title>perfil</title><g id="Layer_2" data-name="Layer 2"><g id="Layer_1-2" data-name="Layer 1"><path d="M21,25.2A12.6,12.6,0,1,0,8.4,12.6,12.61,12.61,0,0,0,21,25.2ZM21,2.8a9.8,9.8,0,1,1-9.8,9.8A9.82,9.82,0,0,1,21,2.8Z"/><path d="M36.68,33.43A18,18,0,0,0,23.8,28H18.2A18,18,0,0,0,5.32,33.43,18.39,18.39,0,0,0,0,46.39a1.4,1.4,0,0,0,1.4,1.4H40.6a1.4,1.4,0,0,0,1.4-1.4A18.39,18.39,0,0,0,36.68,33.43ZM2.86,45A15.5,15.5,0,0,1,18.2,30.8h5.6A15.5,15.5,0,0,1,39.14,45Z"/></g></g></svg>