<svg xmlns="http://www.w3.org/2000/svg" viewBox="0 0 37.18 37.18"><title>sobre o app</title><g id="Layer_2" data-name="Layer 2"><g id="Layer_1-2" data-name="Layer 1"><path d="M20.47,10.74c0-.13-.07-.25-.13-.41A1.54,1.54,0,0,0,20,9.81l-.07-.07a2.38,2.38,0,0,0-.22-.18l-.09-.06-.16-.09-.17-.09a2.06,2.06,0,0,0-.35-.12,2.49,2.49,0,0,0-.37,0,2.24,2.24,0,0,0-.38,0,2.06,2.06,0,0,0-.35.12l-.1,0-.28.16-.07.05a1.41,1.41,0,0,0-.23.18,1.94,1.94,0,0,0-.24.27,3.51,3.51,0,0,0-.18.34,1.31,1.31,0,0,0-.12.35,1.67,1.67,0,0,0,0,.38,2.17,2.17,0,0,0,0,.37,2.2,2.2,0,0,0,.1.41h0l0,.11.17.32a1.47,1.47,0,0,1,.1.13l.14.18a3.15,3.15,0,0,0,.28.23.94.94,0,0,0,.29.16l.08,0a1.36,1.36,0,0,0,.37.11,1.8,1.8,0,0,0,.39,0,2.17,2.17,0,0,0,.37,0,1.21,1.21,0,0,0,.29-.1l.12,0a1.92,1.92,0,0,0,.31-.18,1.6,1.6,0,0,0,.27-.25,1.34,1.34,0,0,0,.24-.29.7.7,0,0,0,.13-.26.27.27,0,0,1,.07-.16,2.29,2.29,0,0,0,.09-.28l0-.07a2.3,2.3,0,0,0,0-.38A2.17,2.17,0,0,0,20.47,10.74Z"/><path d="M21.23,25.31H19.76V16.22a.21.21,0,0,0-.21-.21H16a.21.21,0,0,0-.21.21v1.86a.21.21,0,0,0,.21.21h1.4v7.05H16a.21.21,0,0,0-.21.21V27.4a.2.2,0,0,0,.21.21h5.28a.2.2,0,0,0,.21-.21V25.55A.23.23,0,0,0,21.23,25.31Z"/><path d="M18.59,0A18.59,18.59,0,1,0,37.18,18.59,18.61,18.61,0,0,0,18.59,0Zm0,34.75A16.17,16.17,0,1,1,34.75,18.59,16.19,16.19,0,0,1,18.59,34.75Z"/></g></g></svg>