<svg xmlns="http://www.w3.org/2000/svg" viewBox="0 0 36.93 47.79"><title>tabela nutricional</title><g id="Layer_2" data-name="Layer 2"><g id="Layer_1-2" data-name="Layer 1"><path d="M36.93,11.23a4,4,0,0,0-4-4H28.08A5.77,5.77,0,0,0,25.5,5.65,2.11,2.11,0,0,1,24,4.19a5.8,5.8,0,0,0-11.15,0,2.11,2.11,0,0,1-1.46,1.46A5.77,5.77,0,0,0,8.85,7.24H4a4,4,0,0,0-4,4V43.8a4,4,0,0,0,4,4H32.94a4,4,0,0,0,4-4Zm-27.14,0a3.27,3.27,0,0,1,2.34-3.1,4.68,4.68,0,0,0,3.21-3.2,3.25,3.25,0,0,1,6.25,0,4.68,4.68,0,0,0,3.2,3.2,3.26,3.26,0,0,1,2.35,3.13v1.44H9.79ZM34.38,43.8a1.44,1.44,0,0,1-1.44,1.44H4A1.44,1.44,0,0,1,2.55,43.8V11.23A1.43,1.43,0,0,1,4,9.79H7.42a5.41,5.41,0,0,0-.18,1.39v2.09a1.94,1.94,0,0,0,1.95,1.94H27.74a1.94,1.94,0,0,0,2-1.94v-2a5.8,5.8,0,0,0-.18-1.44h3.43a1.43,1.43,0,0,1,1.44,1.44Z"/><path d="M28.21,28.19a5.44,5.44,0,0,0-4-4,5.51,5.51,0,0,0-4.65.81,4.35,4.35,0,0,1,4.22-3.24.91.91,0,0,0,0-1.82A6.16,6.16,0,0,0,19.14,22a4.87,4.87,0,0,0-4.63-3.37H11.87a.91.91,0,0,0-.91.91A4.87,4.87,0,0,0,13.75,24a5.37,5.37,0,0,0-.88.14A5.59,5.59,0,0,0,8.77,28a12.91,12.91,0,0,0-.24,5.66,13.15,13.15,0,0,0,2.27,5.49,5.38,5.38,0,0,0,4.1,2.51,3.55,3.55,0,0,0,1.67-.43,4,4,0,0,1,3.79,0,3.49,3.49,0,0,0,1.67.43,5.35,5.35,0,0,0,4.09-2.51,13.46,13.46,0,0,0,2.09-11ZM12.92,20.47h1.59a3.06,3.06,0,0,1,2.91,2.14H15.83A3,3,0,0,1,12.92,20.47Zm4.88,4a6.93,6.93,0,0,0-.17.79,4.43,4.43,0,0,0-1.15-.79Zm8.81,8.94a11.42,11.42,0,0,1-1.94,4.71A3.75,3.75,0,0,1,22,39.86a1.62,1.62,0,0,1-.8-.21,5.74,5.74,0,0,0-5.53,0,1.62,1.62,0,0,1-.8.21,3.75,3.75,0,0,1-2.64-1.78,11.36,11.36,0,0,1-1.94-4.71,11.22,11.22,0,0,1,.2-4.85,3.73,3.73,0,0,1,2.78-2.64,3.33,3.33,0,0,1,3.16.74,2.75,2.75,0,0,0,4,0A3.5,3.5,0,0,1,23.72,26a3.64,3.64,0,0,1,2.73,2.68A11.4,11.4,0,0,1,26.61,33.37Z"/></g></g></svg>