<svg xmlns="http://www.w3.org/2000/svg" viewBox="0 0 36.93 47.79"><defs><style>.cls-1{fill:#3f88b3;}</style></defs><title>agenda</title><g id="Layer_2" data-name="Layer 2"><g id="Layer_1-2" data-name="Layer 1"><path class="cls-1" d="M36.93,11.23a4,4,0,0,0-4-4H28.08A5.77,5.77,0,0,0,25.5,5.65,2.11,2.11,0,0,1,24,4.19a5.8,5.8,0,0,0-11.15,0,2.11,2.11,0,0,1-1.46,1.46A5.77,5.77,0,0,0,8.85,7.24H4a4,4,0,0,0-4,4V43.8a4,4,0,0,0,4,4H32.94a4,4,0,0,0,4-4Zm-27.14,0a3.27,3.27,0,0,1,2.34-3.1,4.68,4.68,0,0,0,3.21-3.2,3.25,3.25,0,0,1,6.25,0,4.68,4.68,0,0,0,3.2,3.2,3.26,3.26,0,0,1,2.35,3.13v1.44H9.79ZM34.38,43.8a1.44,1.44,0,0,1-1.44,1.44H4A1.44,1.44,0,0,1,2.55,43.8V11.23A1.43,1.43,0,0,1,4,9.79H7.42a5.41,5.41,0,0,0-.18,1.39v2.09a1.94,1.94,0,0,0,1.95,1.94H27.74a1.94,1.94,0,0,0,2-1.94v-2a5.8,5.8,0,0,0-.18-1.44h3.43a1.43,1.43,0,0,1,1.44,1.44Z"/><rect class="cls-1" x="22.03" y="29.16" width="7.13" height="1.78" rx="0.89" ry="0.89"/><rect class="cls-1" x="22.03" y="34.51" width="7.13" height="1.78" rx="0.89" ry="0.89"/><polygon class="cls-1" points="22.01 21.93 14.45 29.49 12.54 27.58 11.28 28.84 14.45 32.01 16.68 29.78 16.68 34.51 9.56 34.51 9.56 25.6 14.9 25.6 16.68 23.81 7.77 23.81 7.77 36.29 18.46 36.29 18.46 27.99 23.27 23.19 22.01 21.93"/></g></g></svg>