<svg xmlns="http://www.w3.org/2000/svg" viewBox="0 0 36.93 47.79"><defs><style>.cls-1{fill:#3f88b3;}</style></defs><title>informações</title><g id="Layer_2" data-name="Layer 2"><g id="Layer_1-2" data-name="Layer 1"><rect class="cls-1" x="7.15" y="20.7" width="16.9" height="1.88" rx="0.94" ry="0.94"/><rect class="cls-1" x="7.15" y="26.34" width="16.9" height="1.88" rx="0.94" ry="0.94"/><rect class="cls-1" x="7.15" y="31.97" width="16.9" height="1.88" rx="0.94" ry="0.94"/><rect class="cls-1" x="7.15" y="37.61" width="16.9" height="1.88" rx="0.94" ry="0.94"/><circle class="cls-1" cx="28.75" cy="21.64" r="0.94"/><circle class="cls-1" cx="28.75" cy="27.28" r="0.94"/><circle class="cls-1" cx="28.75" cy="32.91" r="0.94"/><circle class="cls-1" cx="28.75" cy="38.55" r="0.94"/><path class="cls-1" d="M36.93,11.23a4,4,0,0,0-4-4H28.08A5.77,5.77,0,0,0,25.5,5.65,2.11,2.11,0,0,1,24,4.19a5.8,5.8,0,0,0-11.15,0,2.11,2.11,0,0,1-1.46,1.46A5.77,5.77,0,0,0,8.85,7.24H4a4,4,0,0,0-4,4V43.8a4,4,0,0,0,4,4H32.94a4,4,0,0,0,4-4Zm-27.14,0a3.27,3.27,0,0,1,2.34-3.1,4.68,4.68,0,0,0,3.21-3.2,3.25,3.25,0,0,1,6.25,0,4.68,4.68,0,0,0,3.2,3.2,3.26,3.26,0,0,1,2.35,3.13v1.44H9.79ZM34.38,43.8a1.44,1.44,0,0,1-1.44,1.44H4A1.44,1.44,0,0,1,2.55,43.8V11.23A1.43,1.43,0,0,1,4,9.79H7.42a5.41,5.41,0,0,0-.18,1.39v2.09a1.94,1.94,0,0,0,1.95,1.94H27.74a1.94,1.94,0,0,0,2-1.94v-2a5.8,5.8,0,0,0-.18-1.44h3.43a1.43,1.43,0,0,1,1.44,1.44Z"/></g></g></svg>