<svg xmlns="http://www.w3.org/2000/svg" viewBox="0 0 28.57 21.18"><defs><style>.cls-1{fill:#3f88b3;}</style></defs><title>sair</title><g id="Layer_2" data-name="Layer 2"><g id="Layer_1-2" data-name="Layer 1"><path class="cls-1" d="M0,10.77a.13.13,0,0,1,0,.05l0,.1c0,.05,0,.08,0,.12a1,1,0,0,0,0,.1l.06.09a.25.25,0,0,0,0,.07l0,0,.08.09,3.93,3.93a1.2,1.2,0,0,0,1.67,0,1.15,1.15,0,0,0,.35-.84A1.16,1.16,0,0,0,6,13.68l-1.9-1.9H19.53a1.19,1.19,0,0,0,0-2.37H4.05L6,7.5a1.15,1.15,0,0,0,.35-.84,1.19,1.19,0,0,0-2-.84L.35,9.75l-.08.09L.2,9.93a.64.64,0,0,0-.06.1v0a.3.3,0,0,0,0,.08,1,1,0,0,1,0,.1l0,.12v0a.2.2,0,0,0,0,.07.72.72,0,0,0,0,.24Z"/><path class="cls-1" d="M18,0a10.6,10.6,0,0,0-8.8,4.69,1.19,1.19,0,0,0,2,1.32,8.22,8.22,0,1,1,0,9.18,1.16,1.16,0,0,0-.75-.5.93.93,0,0,0-.23,0,1.12,1.12,0,0,0-.66.2,1.18,1.18,0,0,0-.32,1.64A10.59,10.59,0,1,0,18,0Z"/></g></g></svg>