<svg xmlns="http://www.w3.org/2000/svg" viewBox="0 0 36.93 47.79"><defs><style>.cls-1{fill:#3f88b3;}</style></defs><title>sobre os medicamentos</title><g id="Layer_2" data-name="Layer 2"><g id="Layer_1-2" data-name="Layer 1"><path class="cls-1" d="M36.93,11.23a4,4,0,0,0-4-4H28.08A5.77,5.77,0,0,0,25.5,5.65,2.11,2.11,0,0,1,24,4.19a5.8,5.8,0,0,0-11.15,0,2.11,2.11,0,0,1-1.46,1.46A5.77,5.77,0,0,0,8.85,7.24H4a4,4,0,0,0-4,4V43.8a4,4,0,0,0,4,4H32.94a4,4,0,0,0,4-4Zm-27.14,0a3.27,3.27,0,0,1,2.34-3.1,4.68,4.68,0,0,0,3.21-3.2,3.25,3.25,0,0,1,6.25,0,4.68,4.68,0,0,0,3.2,3.2,3.26,3.26,0,0,1,2.35,3.13v1.44H9.79ZM34.38,43.8a1.44,1.44,0,0,1-1.44,1.44H4A1.44,1.44,0,0,1,2.55,43.8V11.23A1.43,1.43,0,0,1,4,9.79H7.42a5.41,5.41,0,0,0-.18,1.39v2.09a1.94,1.94,0,0,0,1.95,1.94H27.74a1.94,1.94,0,0,0,2-1.94v-2a5.8,5.8,0,0,0-.18-1.44h3.43a1.43,1.43,0,0,1,1.44,1.44Z"/><path class="cls-1" d="M15.37,33.91l.21-1.08a9.71,9.71,0,0,1,4.26-6.63l1.07-.65-6.58-4A5,5,0,0,0,9.1,30.08ZM8.75,24a3.49,3.49,0,0,1,4.79-1.15l4.51,2.76a11.35,11.35,0,0,0-3.72,5.89L9.9,28.77A3.49,3.49,0,0,1,8.75,24Z"/><path class="cls-1" d="M27.93,30.08l-5.88-3.6-.11.05a7.86,7.86,0,0,0-1.79,1.07l5.66,3.45a.46.46,0,0,1,.15.63.44.44,0,0,1-.39.21.46.46,0,0,1-.23-.06s-5.81-3.59-5.85-3.66a10.47,10.47,0,0,0-2.81,6.11l0,.14,6.27,3.84a4.79,4.79,0,1,0,5-8.18Z"/></g></g></svg>